<?xml version="1.0" encoding="UTF-8"?>
<svg width="13px" height="13px" viewBox="0 0 13 13" version="1.1" xmlns="http://www.w3.org/2000/svg" xmlns:xlink="http://www.w3.org/1999/xlink">
    <!-- Generator: Sketch 49.3 (51167) - http://www.bohemiancoding.com/sketch -->
    <title>Combined Shape</title>
    <desc>Created with Sketch.</desc>
    <defs></defs>
    <g id="Symbols" stroke="none" stroke-width="1" fill="none" fill-rule="evenodd">
        <g id="Icons/menu-icon-expand-SQUARE-BOLD" transform="translate(-5.000000, 0.000000)" fill="#2B4768">
            <path d="M5,0 L8,0 L8,3 L5,3 L5,0 Z M5,5 L8,5 L8,8 L5,8 L5,5 Z M5,10 L8,10 L8,13 L5,13 L5,10 Z M10,0 L13,0 L13,3 L10,3 L10,0 Z M10,5 L13,5 L13,8 L10,8 L10,5 Z M10,10 L13,10 L13,13 L10,13 L10,10 Z M15,0 L18,0 L18,3 L15,3 L15,0 Z M15,5 L18,5 L18,8 L15,8 L15,5 Z M15,10 L18,10 L18,13 L15,13 L15,10 Z" id="Combined-Shape"></path>
        </g>
    </g>
</svg>