<?xml version="1.0" encoding="UTF-8"?>
<svg width="14px" height="16px" viewBox="0 0 14 16" version="1.1" xmlns="http://www.w3.org/2000/svg" xmlns:xlink="http://www.w3.org/1999/xlink">
    <!-- Generator: Sketch 49.3 (51167) - http://www.bohemiancoding.com/sketch -->
    <title>ico-off-red</title>
    <desc>Created with Sketch.</desc>
    <defs></defs>
    <g id="SHARCK---Edit-User" stroke="none" stroke-width="1" fill="none" fill-rule="evenodd">
        <g id="SHARCK---Edit-User-A-Step-1" transform="translate(-676.000000, -272.000000)" fill="#C60D0F">
            <g id="top-profile" transform="translate(413.000000, 170.000000)">
                <g id="buttons" transform="translate(4.000000, 83.000000)">
                    <g id="deactivate-user" transform="translate(259.000000, 5.000000)">
                        <path d="M6.99999601,29.7498344 C5.13430329,29.7515134 3.34790162,28.9955216 2.05017306,27.6551064 C0.728340422,26.305181 -0.00824354718,24.488714 6.96097661e-05,22.5994096 C6.96097661e-05,20.6901797 0.728061956,18.8946985 2.04929806,17.5445877 C2.16483677,17.4253153 2.3237984,17.3579858 2.48985593,17.3579858 C2.65591346,17.3579858 2.81487509,17.4253153 2.9304138,17.5445877 C3.1735756,17.795117 3.1735756,18.1935491 2.9304138,18.4440783 C0.687812379,20.7356792 0.687812379,24.464015 2.9304138,26.7556159 C3.9989215,27.8543317 5.46632899,28.4742603 6.99893625,28.4744251 C8.53154351,28.4745899 9.99908429,27.8549768 11.0678282,26.7564909 C12.1548279,25.6469047 12.760649,24.1535729 12.7539355,22.6002846 C12.7610214,21.0472628 12.1558569,19.5539997 11.0695782,18.4440783 C10.8264164,18.1935491 10.8264164,17.795117 11.0695782,17.5445877 C11.1851169,17.4253153 11.3440786,17.3579858 11.5101361,17.3579858 C11.6761936,17.3579858 11.8351553,17.4253153 11.950694,17.5445877 C13.2724199,18.8948703 14.0086996,20.7116768 13.9999224,22.6011596 C14.0080021,24.4905881 13.2710968,26.3070722 11.948944,27.6568564 C10.6510734,28.9963247 8.86510725,29.7516343 6.99999601,29.7498344 Z M7.00349598,22.5101605 C6.65589637,22.5063147 6.3771016,22.2216465 6.38050253,21.8740422 L6.38050253,14.6361183 C6.3771016,14.2885141 6.65589637,14.0038458 7.00349598,14 C7.35109559,14.0038458 7.62989035,14.2885141 7.62648943,14.6361183 L7.62648943,21.8749172 C7.62989035,22.2225215 7.35109559,22.5071897 7.00349598,22.5110355 L7.00349598,22.5101605 Z" id="ico-off-red"></path>
                    </g>
                </g>
            </g>
        </g>
    </g>
</svg>