<?xml version="1.0" encoding="UTF-8"?>
<svg width="22px" height="22px" viewBox="0 0 22 22" version="1.1" xmlns="http://www.w3.org/2000/svg" xmlns:xlink="http://www.w3.org/1999/xlink">
    <!-- Generator: Sketch 49.3 (51167) - http://www.bohemiancoding.com/sketch -->
    <title>if_Globe_605504</title>
    <desc>Created with Sketch.</desc>
    <defs></defs>
    <g id="Symbols" stroke="none" stroke-width="1" fill="none" fill-rule="evenodd">
        <g id="Nav/nav-text-blue" transform="translate(-16.000000, -133.000000)" fill="#2B4768" fill-rule="nonzero">
            <g id="menu">
                <g id="icons" transform="translate(16.000000, 40.000000)">
                    <g id="if_Globe_605504">
                        <g transform="translate(0.000000, 93.000000)">
                            <path d="M21.5217391,10.3125 C21.7858753,10.3125 22,10.4664021 22,10.65625 C22,10.8460979 21.7858753,11 21.5217391,11 L0.47826087,11 C0.214124685,11 0,10.8460979 0,10.65625 C0,10.4664021 0.214124685,10.3125 0.47826087,10.3125 L21.5217391,10.3125 Z" id="Shape"></path>
                            <path d="M10.3125,0.47826087 C10.3125,0.214124685 10.4664021,0 10.65625,0 C10.8460979,0 11,0.214124685 11,0.47826087 L11,21.5217391 C11,21.7858753 10.8460979,22 10.65625,22 C10.4664021,22 10.3125,21.7858753 10.3125,21.5217391 L10.3125,0.47826087 Z" id="Shape"></path>
                            <path d="M11,22 C4.92486775,22 0,17.0751322 0,11 C0,4.92486775 4.92486775,0 11,0 C17.0751322,0 22,4.92486775 22,11 C22,17.0751322 17.0751322,22 11,22 Z M11,21.0434783 C16.5468599,21.0434783 21.0434783,16.5468599 21.0434783,11 C21.0434783,5.45314012 16.5468599,0.956521739 11,0.956521739 C5.45314012,0.956521739 0.956521739,5.45314012 0.956521739,11 C0.956521739,16.5468599 5.45314012,21.0434783 11,21.0434783 Z" id="Oval"></path>
                            <path d="M11.2133621,21.0434783 C11.4752212,21.0434783 11.6875,21.2576029 11.6875,21.5217391 C11.6875,21.7858753 11.4752212,22 11.2133621,22 C9.93374233,22 8.33218304,20.6985019 7.05502401,18.6990271 C5.65852862,16.5127235 4.8125,13.7799848 4.8125,11 C4.8125,8.2167384 5.65216435,5.48290255 7.0397324,3.30171758 C8.31424485,1.29825015 9.91632354,0 11.2133621,0 C11.4752212,0 11.6875,0.214124685 11.6875,0.47826087 C11.6875,0.742397054 11.4752212,0.956521739 11.2133621,0.956521739 C10.3187639,0.956521739 8.95566346,2.06111504 7.83782687,3.81829615 C6.54576466,5.8493509 5.76077586,8.40517039 5.76077586,11 C5.76077586,13.5904641 6.55156781,16.1447839 7.8521691,18.1809592 C8.97238109,19.9347233 10.3367602,21.0434783 11.2133621,21.0434783 Z" id="Shape"></path>
                            <path d="M10.7866379,22 C10.5247788,22 10.3125,21.7858753 10.3125,21.5217391 C10.3125,21.2576029 10.5247788,21.0434783 10.7866379,21.0434783 C11.6632402,21.0434783 13.0276193,19.9347234 14.1478312,18.1809592 C15.4484323,16.1447841 16.2392241,13.5904642 16.2392241,11 C16.2392241,8.40517039 15.4542353,5.8493509 14.1621731,3.81829615 C13.0443365,2.06111504 11.6812361,0.956521739 10.7866379,0.956521739 C10.5247788,0.956521739 10.3125,0.742397054 10.3125,0.47826087 C10.3125,0.214124685 10.5247788,0 10.7866379,0 C12.0836765,0 13.6857552,1.29825015 14.9602676,3.30171758 C16.3478357,5.48290255 17.1875,8.2167384 17.1875,11 C17.1875,13.7799849 16.3414715,16.5127236 14.9449763,18.6990271 C13.6678174,20.698502 12.0662581,22 10.7866379,22 Z" id="Shape"></path>
                            <path d="M10.7994792,0.956521739 C10.530528,0.956521739 10.3125,0.742397054 10.3125,0.47826087 C10.3125,0.214124685 10.530528,0 10.7994792,0 C16.9853561,0 22,4.92486763 22,11 C22,17.0751324 16.9853561,22 10.7994792,22 C10.530528,22 10.3125,21.7858753 10.3125,21.5217391 C10.3125,21.2576029 10.530528,21.0434783 10.7994792,21.0434783 C16.4474538,21.0434783 21.0260417,16.54686 21.0260417,11 C21.0260417,5.45314 16.4474538,0.956521739 10.7994792,0.956521739 Z" id="Shape"></path>
                        </g>
                    </g>
                </g>
            </g>
        </g>
    </g>
</svg>