<?xml version="1.0" encoding="UTF-8"?>
<svg width="24px" height="24px" viewBox="0 0 24 24" version="1.1" xmlns="http://www.w3.org/2000/svg" xmlns:xlink="http://www.w3.org/1999/xlink">
    <!-- Generator: Sketch 49.3 (51167) - http://www.bohemiancoding.com/sketch -->
    <title>a-link</title>
    <desc>Created with Sketch.</desc>
    <defs></defs>
    <g id="Symbols" stroke="none" stroke-width="1" fill="none" fill-rule="evenodd">
        <g id="Nav/nav-text-blue" transform="translate(-15.000000, -86.000000)" fill="#2B4768" fill-rule="nonzero">
            <g id="menu">
                <g id="icons" transform="translate(16.000000, 40.000000)">
                    <g id="sale">
                        <g transform="translate(0.000000, 47.000000)">
                            <g id="a-link">
                                <path d="M11,22.5 C4.64872538,22.5 -0.5,17.3512746 -0.5,11 C-0.5,4.64872538 4.64872538,-0.5 11,-0.5 C17.3512746,-0.5 22.5,4.64872538 22.5,11 C22.5,17.3512746 17.3512746,22.5 11,22.5 Z M11,21.5 C16.7989899,21.5 21.5,16.7989899 21.5,11 C21.5,5.20101013 16.7989899,0.5 11,0.5 C5.20101013,0.5 0.5,5.20101013 0.5,11 C0.5,16.7989899 5.20101013,21.5 11,21.5 Z" id="Oval-4"></path>
                                <path d="M8.71711679,8.16670947 L9.97603793,4.27891358 C10.104537,3.82155748 10.5184487,3.5 11,3.5 C11.4815253,3.5 11.8959917,3.82196109 12.0177781,4.25955834 L13.2881103,8.16670947 L17.4456822,8.16670947 C18.0368455,8.16670947 18.5,8.66380382 18.5,9.25008026 C18.5,9.60430318 18.3278074,9.93081735 18.0379707,10.133929 C18.00727,10.1546901 17.286967,10.6794806 16.227792,11.4525718 C15.8260246,11.7458222 15.541029,11.9539203 14.9711278,12.3701304 C14.8502889,12.4583941 14.7614822,12.5232607 14.6940945,12.5724827 C14.7197007,12.6510837 14.7533636,12.7544149 14.7990228,12.8945693 C15.0163068,13.5613794 15.1249799,13.8947728 15.2772195,14.3615226 C15.6599631,15.5349666 15.960659,16.4540043 15.9741884,16.4901976 C16.0132448,16.6062108 16.0353772,16.7248962 16.0353772,16.8479615 C16.0353772,17.4360496 15.5579784,17.9167576 14.9694061,17.9167576 C14.7504517,17.9167576 14.5405116,17.8492171 14.3551046,17.7215902 C14.3176641,17.694826 13.6505981,17.2092644 12.5293187,16.3927423 C11.8450151,15.8944105 11.8450151,15.8944105 11.2753102,15.4794945 C11.1554478,15.3921958 11.0671092,15.3278568 10.9999312,15.2789294 L7.63684984,17.727245 C7.45862462,17.8494111 7.24930299,17.9167576 7.03033708,17.9167576 C6.44115282,17.9167576 5.96462279,17.4382856 5.96462279,16.8479615 C5.96462279,16.7258073 5.98638934,16.6086279 6.03450899,16.4656467 C6.0394906,16.453066 6.34339936,15.5245421 6.72097336,14.3670722 C6.87504289,13.8947624 6.98372087,13.5613722 7.20100965,12.8945665 C7.24666621,12.7544214 7.28032797,12.6510948 7.30593354,12.5724962 C7.23854024,12.5232737 7.14972563,12.4584062 7.0288751,12.3701405 C6.45893282,11.9539294 6.17391801,11.7458306 5.77474994,11.4544929 C4.71165118,10.6785785 3.99241836,10.1545669 3.95502711,10.1291516 C3.67270846,9.93122402 3.5,9.60504974 3.5,9.2529053 C3.5,8.66432842 3.9686365,8.16670947 4.55993579,8.16670947 L8.71711679,8.16670947 Z M11,4.5 C10.9715582,4.5 10.9473592,4.51879954 10.9330956,4.56814881 L9.44445709,9.16670947 L4.55993579,9.16670947 C4.53478256,9.16670947 4.5,9.20364313 4.5,9.2529053 C4.5,9.27623169 4.51154884,9.29804263 4.52255345,9.30583451 C4.56986349,9.33789573 5.20817393,9.8029497 6.36174416,10.6448957 C6.76354553,10.9381553 7.04862246,11.1462995 7.61865202,11.5625743 C8.07461268,11.8955945 8.07461268,11.8955945 8.18859163,11.9788607 L8.4813213,12.1927114 L8.36907129,12.5374182 C8.32562914,12.670824 8.32562914,12.670824 8.15181216,13.2043642 C7.93448468,13.8712886 7.82577914,14.2047634 7.67348549,14.6716292 C7.19780446,16.1298505 6.98229675,16.7882852 6.97415323,16.8065708 C6.96724529,16.827481 6.96462279,16.8415991 6.96462279,16.8479615 C6.96462279,16.8869092 6.99435006,16.9167576 7.03033708,16.9167576 C7.03916563,16.9167576 8.36240658,15.958469 11.0000599,14.0418917 L11.2943739,14.2562589 C11.4082974,14.3392366 11.4082974,14.3392366 11.8640303,14.6711575 C12.433715,15.0860588 12.433715,15.0860588 13.117395,15.5839365 C14.2137775,16.3823286 14.9032811,16.8842226 14.9292297,16.9028727 C14.9432646,16.9125262 14.9564172,16.9167576 14.9694061,16.9167576 C15.0041414,16.9167576 15.0353772,16.8853053 15.0353772,16.8479615 C15.0172796,16.7873402 14.7986322,16.1190729 14.3281917,14.6767617 C14.1742368,14.2047529 14.0655383,13.8712813 13.8482185,13.2043614 C13.6744042,12.6708248 13.6744042,12.6708248 13.6309619,12.5374215 L13.5187132,12.192727 L13.8114249,11.9788721 C13.9253953,11.8956054 13.9253953,11.8956054 14.3813233,11.5625843 C14.9513144,11.1463086 15.236374,10.9381637 15.635611,10.6467604 C16.7929772,9.8019994 17.430155,9.33777129 17.4708538,9.31033478 C17.488471,9.29798372 17.5,9.27612224 17.5,9.25008026 C17.5,9.2009049 17.4681393,9.16670947 17.4456822,9.16670947 L12.5617131,9.16670947 L12.4494129,8.82130843 L11.0607162,4.54868225 C11.0523616,4.51877529 11.0281919,4.5 11,4.5 Z" id="Shape"></path>
                            </g>
                        </g>
                    </g>
                </g>
            </g>
        </g>
    </g>
</svg>