<?xml version="1.0" encoding="UTF-8"?>
<svg width="17px" height="18px" viewBox="0 0 17 18" version="1.1" xmlns="http://www.w3.org/2000/svg" xmlns:xlink="http://www.w3.org/1999/xlink">
    <!-- Generator: Sketch 49.3 (51167) - http://www.bohemiancoding.com/sketch -->
    <title>Icons/Time/ICON_TIME_02 blue</title>
    <desc>Created with Sketch.</desc>
    <defs>
        <path d="M8.00819416,9.15178151 L8.00819416,2.12832128 L9.05029086,2.12832128 L9.05029086,8.11802546 L14.8860324,8.11802546 L14.8860324,9.15178151 L8.00819416,9.15178151 Z M8.51435541,16.3272647 C12.95071,16.3272647 15.9281291,13.2564011 15.9281291,8.66530807 C15.9281291,4.10461961 12.95071,1.06416064 8.51435541,1.06416064 C4.04822668,1.06416064 1.07080753,4.10461961 1.07080753,8.66530807 C1.07080753,13.2259965 4.07800088,16.3272647 8.51435541,16.3272647 Z M14.3798711,15.2022949 C12.8911616,16.600906 10.8665165,17.3914253 8.51435541,17.3914253 C6.16219428,17.3914253 4.13754926,16.600906 2.64883968,15.2326995 L1.07080753,17.3306161 L0.147807594,16.600906 L1.8747107,14.4117755 C0.683743041,12.9219506 -5.43565193e-13,10.9456523 -5.43565193e-13,8.66530807 C-5.43565193e-13,3.58774159 3.51229124,0 8.51435541,0 C13.5164196,0 17,3.557337 17,8.66530807 C17,10.9152477 16.3151936,12.891546 15.1540001,14.3813709 L16.8809032,16.600906 L15.9579033,17.3306161 L14.3798711,15.2022949 Z" id="path-1"></path>
    </defs>
    <g id="Icons/Time/ICON_TIME_02-blue" stroke="none" stroke-width="1" fill="none" fill-rule="evenodd">
        <g id="Color/Black">
            <mask id="mask-2" fill="white">
                <use xlink:href="#path-1"></use>
            </mask>
            <use id="Mask" fill="#0076CC" xlink:href="#path-1"></use>
        </g>
    </g>
</svg>