<?xml version="1.0" encoding="UTF-8"?>
<svg width="20px" height="20px" viewBox="0 0 20 20" version="1.1" xmlns="http://www.w3.org/2000/svg" xmlns:xlink="http://www.w3.org/1999/xlink">
    <!-- Generator: Sketch 49.3 (51167) - http://www.bohemiancoding.com/sketch -->
    <title>ico-settings-white</title>
    <desc>Created with Sketch.</desc>
    <defs>
        <path d="M10,13.0693069 C11.9354839,13.0693069 13.029453,11.9377652 13.029453,10.0141443 C13.029453,8.00565771 11.9635344,6.90240453 10,6.90240453 C8.06451613,6.90240453 6.97054698,8.00565771 6.97054698,10.0141443 C6.97054698,11.9660537 8.06451613,13.0693069 10,13.0693069 M10,5.94059406 C12.5245442,5.94059406 14.0112202,7.46817539 14.0112202,10.0141443 C14.0112202,12.5318246 12.4964937,14.0311174 10,14.0311174 C7.50350631,14.0311174 5.9887798,12.5318246 5.9887798,10.0141443 C5.9887798,7.43988685 7.47545582,5.94059406 10,5.94059406 M6.66199158,1.27298444 C5.84852735,1.6407355 4.89481066,2.23479491 4.05329593,2.8854314 C4.24964937,3.56435644 4.33380084,4.24328147 4.33380084,4.89391796 C4.33380084,6.64780764 3.32398317,7.75106082 1.02384292,8.42998586 C0.967741935,9.42008487 0.967741935,10.5516266 1.02384292,11.5700141 C3.32398317,12.2489392 4.33380084,13.3521924 4.33380084,15.106082 C4.33380084,15.7567185 4.24964937,16.4356436 4.05329593,17.1145686 C4.89481066,17.7652051 5.84852735,18.3592645 6.66199158,18.7270156 C7.61570827,17.5954738 8.65357644,17.0862801 10,17.0862801 C11.3464236,17.0862801 12.3842917,17.5954738 13.3380084,18.7270156 C14.1514727,18.3592645 15.1051893,17.7652051 15.9467041,17.1145686 C15.7503506,16.4356436 15.6661992,15.7567185 15.6661992,15.106082 C15.6661992,13.3521924 16.6760168,12.2489392 18.9761571,11.5700141 C19.0322581,10.5516266 19.0322581,9.42008487 18.9761571,8.42998586 C16.6760168,7.75106082 15.6661992,6.64780764 15.6661992,4.89391796 C15.6661992,4.24328147 15.7503506,3.56435644 15.9467041,2.8854314 C15.1051893,2.23479491 14.1514727,1.6407355 13.3380084,1.27298444 C12.3842917,2.40452617 11.3464236,2.91371994 10,2.91371994 C8.65357644,2.91371994 7.61570827,2.40452617 6.66199158,1.27298444 M12.7489481,0.424328147 L13.1136045,0 C14.4600281,0.650636492 16.0308555,1.58415842 17.1528752,2.43281471 L16.9845722,2.97029703 C16.7601683,3.67751061 16.6479663,4.3281471 16.6479663,4.89391796 C16.6479663,6.19519095 17.4333801,6.95898161 19.3408135,7.49646393 L19.9579243,7.66619519 C20.0140252,9.33521924 20.0140252,10.6930693 19.9579243,12.3338048 L19.3408135,12.5035361 C17.4333801,13.0410184 16.6479663,13.8048091 16.6479663,15.106082 C16.6479663,15.6718529 16.7601683,16.3224894 16.9845722,17.029703 L17.1528752,17.5671853 C16.0308555,18.4158416 14.4600281,19.3493635 13.1136045,20 L12.7489481,19.5756719 C11.8793829,18.5289958 11.0378682,18.0480905 10,18.0480905 C8.96213184,18.0480905 8.12061711,18.5289958 7.25105189,19.5756719 L6.88639551,20 C5.53997195,19.3493635 3.96914446,18.4158416 2.84712482,17.5671853 L3.01542777,17.029703 C3.2398317,16.3224894 3.35203366,15.6718529 3.35203366,15.106082 C3.35203366,13.8048091 2.56661992,13.0410184 0.659186536,12.5035361 L0.0420757363,12.3338048 C-0.0140252454,10.6930693 -0.0140252454,9.33521924 0.0420757363,7.66619519 L0.659186536,7.49646393 C2.56661992,6.95898161 3.35203366,6.19519095 3.35203366,4.89391796 C3.35203366,4.3281471 3.2398317,3.67751061 3.01542777,2.97029703 L2.84712482,2.43281471 C3.96914446,1.58415842 5.53997195,0.650636492 6.88639551,0 L7.25105189,0.424328147 C8.12061711,1.47100424 8.96213184,1.95190948 10,1.95190948 C11.0378682,1.95190948 11.8793829,1.47100424 12.7489481,0.424328147" id="path-1"></path>
    </defs>
    <g id="Symbols" stroke="none" stroke-width="1" fill="none" fill-rule="evenodd">
        <g id="Buttons/Medium/Settings/blue" transform="translate(-10.000000, -10.000000)">
            <g id="Icons/Mechanical/ICON_MECHANICAL_01" transform="translate(10.000000, 10.000000)">
                <mask id="mask-2" fill="white">
                    <use xlink:href="#path-1"></use>
                </mask>
                <use id="ICON_MECHANICAL_01" fill="#000000" fill-rule="evenodd" xlink:href="#path-1"></use>
                <g id="Color/White" mask="url(#mask-2)" fill="#FFFFFF" fill-rule="evenodd">
                    <g transform="translate(-2.000000, -2.000000)" id="Rectangle">
                        <rect x="0" y="0" width="28" height="28"></rect>
                    </g>
                </g>
            </g>
        </g>
    </g>
</svg>