<?xml version="1.0" encoding="UTF-8"?>
<svg width="21px" height="21px" viewBox="0 0 21 21" version="1.1" xmlns="http://www.w3.org/2000/svg" xmlns:xlink="http://www.w3.org/1999/xlink">
    <!-- Generator: Sketch 49.3 (51167) - http://www.bohemiancoding.com/sketch -->
    <title>a</title>
    <desc>Created with Sketch.</desc>
    <defs></defs>
    <g id="Symbols" stroke="none" stroke-width="1" fill="none" fill-rule="evenodd">
        <g id="Nav/nav-text-blue" transform="translate(-17.000000, -40.000000)" fill="#2B4768" fill-rule="nonzero">
            <g id="menu">
                <g id="icons" transform="translate(17.000000, 40.000000)">
                    <g id="brake">
                        <g>
                            <g id="a-link">
                                <path d="M11.04285,7.63035 C9.1812,7.63035 7.69335,9.15075 7.69335,11.04285 C7.69335,12.93495 9.1812,14.45535 11.04285,14.45535 C12.9045,14.45535 14.39235,12.93495 14.39235,11.04285 C14.39235,9.15075 12.9045,7.63035 11.04285,7.63035 Z M11.04285,6.57615 C13.49355,6.57615 15.4791,8.59215 15.4791,11.04285 C15.4791,13.49355 13.49355,15.50955 11.04285,15.50955 C8.59215,15.50955 6.6066,13.49355 6.6066,11.04285 C6.6066,8.59215 8.59215,6.57615 11.04285,6.57615 Z M1.30305,8.87145 L4.71555,8.87145 C5.2731,6.85545 6.8859,5.24265 8.83995,4.74495 L8.83995,1.2726 C4.80795,1.9866 1.9236,4.90245 1.30305,8.8725 L1.30305,8.87145 Z M11.04285,1.0857 C16.5333,1.0857 21,5.5209 21,11.01135 C21,16.5333 16.5333,21 11.04285,21 C5.5524,21 1.1172,16.5333 1.1172,11.01135 L2.1714,11.01135 C2.1714,15.91275 6.14145,19.9143 11.04285,19.9143 C15.91275,19.9143 19.88385,15.9138 19.88385,11.01135 C19.88385,6.14145 15.91275,2.17035 11.04285,2.17035 L11.04285,1.08675 L11.04285,1.0857 Z M9.92565,5.5839 C7.50645,6.01755 5.95665,7.6314 5.5839,9.92565 L0,9.92565 C0.49665,4.2189 4.2189,0.49665 9.92565,0 L9.92565,5.5839 Z" id="a"></path>
                            </g>
                        </g>
                    </g>
                </g>
            </g>
        </g>
    </g>
</svg>