<?xml version="1.0" encoding="UTF-8"?>
<svg width="24px" height="24px" viewBox="0 0 24 24" version="1.1" xmlns="http://www.w3.org/2000/svg" xmlns:xlink="http://www.w3.org/1999/xlink">
    <!-- Generator: Sketch 49.3 (51167) - http://www.bohemiancoding.com/sketch -->
    <title>Shape</title>
    <desc>Created with Sketch.</desc>
    <defs></defs>
    <g id="Symbols" stroke="none" stroke-width="1" fill="none" fill-rule="evenodd">
        <g id="Nav/left-off" transform="translate(-16.000000, -118.000000)" fill-rule="nonzero" stroke="#2B4768" stroke-width="1.3">
            <path d="M27.9107396,141.308948 C32.262225,139.763981 35.2622308,136.538053 37.1445675,132.100799 C38.0781694,129.900009 38.6772791,127.535616 39.0060067,125.159668 C39.1967104,123.781317 39.2650888,122.68201 39.2705366,121.91308 C37.4132615,121.947421 34.9336956,121.363329 32.0813109,120.36116 C30.386715,119.765773 28.5469283,118.998748 27.9606737,118.715714 C27.339855,119.012434 25.520819,119.768317 23.8471318,120.355631 C20.9983033,121.355314 18.5172668,121.940597 16.6499059,121.912478 C16.6516222,122.721695 16.7170202,123.848643 16.9052715,125.243357 C17.2224746,127.593448 17.8047366,129.927731 18.7145476,132.10094 C20.5713865,136.536256 23.5551805,139.760883 27.9107396,141.308948 Z" id="Shape"></path>
        </g>
    </g>
</svg>