<?xml version="1.0" encoding="UTF-8"?>
<svg width="15px" height="16px" viewBox="0 0 15 16" version="1.1" xmlns="http://www.w3.org/2000/svg" xmlns:xlink="http://www.w3.org/1999/xlink">
    <!-- Generator: Sketch 49.3 (51167) - http://www.bohemiancoding.com/sketch -->
    <title>ico-search</title>
    <desc>Created with Sketch.</desc>
    <defs></defs>
    <g id="Symbols" stroke="none" stroke-width="1" fill="none" fill-rule="evenodd">
        <g id="Elements/Searc" transform="translate(-115.000000, 0.000000)" fill="#000000" fill-rule="nonzero">
            <g id="ico-search" transform="translate(116.000000, 0.000000)">
                <path d="M8,10 C10.209139,10 12,8.209139 12,6 C12,3.790861 10.209139,2 8,2 C5.790861,2 4,3.790861 4,6 C4,8.209139 5.790861,10 8,10 Z M8,12 C4.6862915,12 2,9.3137085 2,6 C2,2.6862915 4.6862915,0 8,0 C11.3137085,0 14,2.6862915 14,6 C14,9.3137085 11.3137085,12 8,12 Z" id="Oval-5"></path>
                <polygon id="Line-2" points="4.5 9.08578644 5.91421356 10.5 0.5 15.9142136 -0.914213562 14.5"></polygon>
            </g>
        </g>
    </g>
</svg>