<?xml version="1.0" encoding="UTF-8"?>
<svg width="18px" height="16px" viewBox="0 0 18 16" version="1.1" xmlns="http://www.w3.org/2000/svg" xmlns:xlink="http://www.w3.org/1999/xlink">
    <!-- Generator: Sketch 49.3 (51167) - http://www.bohemiancoding.com/sketch -->
    <title>ico-toggle-blue</title>
    <desc>Created with Sketch.</desc>
    <defs>
        <path d="M15.62,21.524 C14.3464085,20.4932828 13.1153855,19.4110501 11.93,18.28 L12.898,18.028 C13.6829022,18.8028228 14.503809,19.5403041 15.358,20.238 C14.678,16.938 12.244,14.979 9,14.979 C6.044,14.979 4.081,16.378 2.8,19.399 L1.962,19.007 C3.166,15.762 5.625,14 9,14 C12.637,14 15.41,16.154 16.142,19.958 C16.509,18.951 16.692,18.252 17.032,16.993 L18,16.741 C17.5397647,18.3251037 16.9983833,19.8844956 16.378,21.413 L15.619,21.524 L15.62,21.524 Z M9,30 C5.363,30 2.59,27.846 1.858,24.042 C1.491,25.049 1.308,25.748 0.968,27.007 L0,27.259 C0.55,25.413 0.942,24.294 1.622,22.587 L2.381,22.476 C3.65425168,23.5067386 4.8849408,24.588971 6.07,25.72 L5.102,25.972 C4.31709781,25.1971772 3.49619102,24.4596959 2.642,23.762 C3.322,27.062 5.756,29.021 9,29.021 C11.956,29.021 13.919,27.622 15.2,24.601 L16.038,24.993 C14.834,28.238 12.375,30 9,30 Z" id="path-1"></path>
    </defs>
    <g id="SHARCK---Edit-User" stroke="none" stroke-width="1" fill="none" fill-rule="evenodd">
        <g id="SHARCK---Edit-User-A-Step-1" transform="translate(-504.000000, -272.000000)">
            <g id="top-profile" transform="translate(413.000000, 170.000000)">
                <g id="buttons" transform="translate(4.000000, 83.000000)">
                    <g id="change-profile" transform="translate(87.000000, 5.000000)">
                        <mask id="mask-2" fill="white">
                            <use xlink:href="#path-1"></use>
                        </mask>
                        <use id="ico-toggle-blue" fill="#2985F6" xlink:href="#path-1"></use>
                    </g>
                </g>
            </g>
        </g>
    </g>
</svg>