<?xml version="1.0" encoding="UTF-8"?>
<svg width="139px" height="50px" viewBox="0 0 139 50" version="1.1" xmlns="http://www.w3.org/2000/svg" xmlns:xlink="http://www.w3.org/1999/xlink">
    <!-- Generator: Sketch 49.3 (51167) - http://www.bohemiancoding.com/sketch -->
    <title>Logos/A</title>
    <desc>Created with Sketch.</desc>
    <defs>
        <linearGradient x1="50%" y1="34.443768%" x2="50%" y2="96.3137971%" id="linearGradient-1">
            <stop stop-color="#FFCC33" offset="0%"></stop>
            <stop stop-color="#FFA133" offset="100%"></stop>
        </linearGradient>
    </defs>
    <g id="Symbols" stroke="none" stroke-width="1" fill="none" fill-rule="evenodd">
        <g id="Nav/nav-F" transform="translate(-20.000000, -14.000000)">
            <g id="content" transform="translate(20.000000, 14.000000)">
                <g id="left">
                    <g id="Logos/E">
                        <path d="M60.196,16.228 C60.196,17.2266717 59.8973363,17.9663309 59.3,18.447 C58.7026637,18.9276691 57.7786729,19.168 56.528,19.168 C56.135998,19.168 55.7300021,19.1400003 55.31,19.084 C54.8899979,19.0279997 54.4280025,18.9440006 53.924,18.832 L53.924,16.956 C54.3253353,17.0960007 54.7476645,17.203333 55.191,17.278 C55.6343356,17.352667 56.0566647,17.39 56.458,17.39 C57.0180028,17.39 57.4426652,17.3130008 57.732,17.159 C58.0213348,17.0049992 58.166,16.7786682 58.166,16.48 C58.166,16.2279987 58.0656677,16.0086676 57.865,15.822 C57.6643323,15.6353324 57.2186701,15.4020014 56.528,15.122 C55.9679972,14.8979989 55.5550013,14.7113341 55.289,14.562 C55.0229987,14.4126659 54.7966676,14.2493342 54.61,14.072 C54.3299986,13.8106654 54.122334,13.514335 53.987,13.183 C53.851666,12.851665 53.784,12.4760021 53.784,12.056 C53.784,11.0386616 54.084997,10.2850025 54.687,9.795 C55.289003,9.30499755 56.2153271,9.06 57.466,9.06 C57.858002,9.06 58.2476647,9.08099979 58.635,9.123 C59.0223353,9.16500021 59.4073314,9.22333296 59.79,9.298 L59.79,11.188 C59.4446649,11.0759994 59.0596688,10.989667 58.635,10.929 C58.2103312,10.868333 57.8160018,10.838 57.452,10.838 C56.9013306,10.838 56.490668,10.9149992 56.22,11.069 C55.949332,11.2230008 55.814,11.4539985 55.814,11.762 C55.814,12.032668 55.9166656,12.265999 56.122,12.462 C56.3273344,12.658001 56.7799965,12.891332 57.48,13.162 C58.0400028,13.3860011 58.455332,13.5749992 58.726,13.729 C58.996668,13.8830008 59.2253324,14.0486658 59.412,14.226 C59.6733346,14.4780013 59.8693327,14.769665 60,15.101 C60.1306673,15.432335 60.196,15.8079979 60.196,16.228 Z M65.354,19.168 C64.1406606,19.168 63.2050033,18.8600031 62.547,18.244 C61.8889967,17.6279969 61.56,16.7460057 61.56,15.598 L61.56,9.228 L63.66,9.228 L63.66,15.416 C63.66,16.07867 63.7906654,16.5639985 64.052,16.872 C64.3133346,17.1800015 64.7426637,17.334 65.34,17.334 C65.9466697,17.334 66.3806654,17.1800015 66.642,16.872 C66.9033346,16.5639985 67.034,16.07867 67.034,15.416 L67.034,9.228 L69.134,9.228 L69.134,15.598 C69.134,16.7460057 68.8050033,17.6279969 68.147,18.244 C67.4889967,18.8600031 66.558006,19.168 65.354,19.168 Z M73.298,19 L71.184,19 L71.184,9.228 L74.824,9.228 C75.9160054,9.228 76.7653303,9.51499713 77.372,10.089 C77.9786697,10.6630029 78.282,11.4773281 78.282,12.532 C78.282,13.5866719 77.9786697,14.3986638 77.372,14.968 C76.7653303,15.5373362 75.9160054,15.822 74.824,15.822 L73.298,15.822 L73.298,19 Z M76.168,12.532 C76.168,12.0186641 76.0466679,11.6290013 75.804,11.363 C75.5613321,11.0969987 75.206669,10.964 74.74,10.964 L73.298,10.964 L73.298,14.086 L74.74,14.086 C75.2160024,14.086 75.5729988,13.9553346 75.811,13.694 C76.0490012,13.4326654 76.168,13.0453359 76.168,12.532 Z M81.816,19 L79.702,19 L79.702,9.228 L83.342,9.228 C84.4340054,9.228 85.2833303,9.51499713 85.89,10.089 C86.4966697,10.6630029 86.8,11.4773281 86.8,12.532 C86.8,13.5866719 86.4966697,14.3986638 85.89,14.968 C85.2833303,15.5373362 84.4340054,15.822 83.342,15.822 L81.816,15.822 L81.816,19 Z M84.686,12.532 C84.686,12.0186641 84.5646679,11.6290013 84.322,11.363 C84.0793321,11.0969987 83.724669,10.964 83.258,10.964 L81.816,10.964 L81.816,14.086 L83.258,14.086 C83.7340024,14.086 84.0909988,13.9553346 84.329,13.694 C84.5670012,13.4326654 84.686,13.0453359 84.686,12.532 Z M90.334,17.264 L94.282,17.264 L94.282,19 L88.22,19 L88.22,9.228 L90.334,9.228 L90.334,17.264 Z M97.62,9.228 L97.62,19 L95.506,19 L95.506,9.228 L97.62,9.228 Z M105.83,19 L99.768,19 L99.768,9.228 L105.83,9.228 L105.83,10.964 L101.882,10.964 L101.882,13.106 L105.41,13.106 L105.41,14.898 L101.882,14.898 L101.882,17.264 L105.83,17.264 L105.83,19 Z M109.658,19 L107.544,19 L107.544,9.228 L111.268,9.228 C112.304005,9.228 113.122997,9.49633065 113.725,10.033 C114.327003,10.5696693 114.628,11.3139952 114.628,12.266 C114.628,12.9100032 114.476335,13.4676643 114.173,13.939 C113.869665,14.4103357 113.438003,14.7626655 112.878,14.996 C113.223335,15.5093359 113.573332,16.0786635 113.928,16.704 C114.282668,17.3293365 114.693331,18.0946621 115.16,19 L112.78,19 C112.462665,18.3279966 112.145335,17.6980029 111.828,17.11 C111.510665,16.5219971 111.193335,15.9666693 110.876,15.444 L109.658,15.444 L109.658,19 Z M112.528,12.308 C112.528,11.8879979 112.399668,11.5590012 112.143,11.321 C111.886332,11.0829988 111.538669,10.964 111.1,10.964 L109.658,10.964 L109.658,13.708 L111.114,13.708 C111.552669,13.708 111.897999,13.5866679 112.15,13.344 C112.402001,13.1013321 112.528,12.7560022 112.528,12.308 Z M58.222,33.168 C56.6633255,33.168 55.5293369,32.7620041 54.82,31.95 C54.1106631,31.1379959 53.756,29.8500088 53.756,28.086 C53.756,26.3499913 54.1013299,25.0783374 54.792,24.271 C55.4826701,23.4636626 56.5839924,23.06 58.096,23.06 C58.488002,23.06 58.8706648,23.0856664 59.244,23.137 C59.6173352,23.1883336 59.9439986,23.2606662 60.224,23.354 L60.224,25.202 C59.8879983,25.0993328 59.5613349,25.0223336 59.244,24.971 C58.9266651,24.9196664 58.6046683,24.894 58.278,24.894 C57.3633288,24.894 56.740335,25.1296643 56.409,25.601 C56.077665,26.0723357 55.912,26.9006607 55.912,28.086 C55.912,29.2620059 56.0916649,30.0973309 56.451,30.592 C56.8103351,31.0866691 57.4286623,31.334 58.306,31.334 C58.6140015,31.334 58.933665,31.3083336 59.265,31.257 C59.596335,31.2056664 59.9159985,31.1333338 60.224,31.04 L60.224,32.902 C59.953332,32.9860004 59.6476684,33.0513331 59.307,33.098 C58.9663316,33.1446669 58.6046686,33.168 58.222,33.168 Z M69.484,33 L67.37,33 L67.37,28.996 L63.786,28.996 L63.786,33 L61.672,33 L61.672,23.228 L63.786,23.228 L63.786,27.148 L67.37,27.148 L67.37,23.228 L69.484,23.228 L69.484,33 Z M79.192,33 L77.036,33 C76.9706663,32.6546649 76.9030003,32.316335 76.833,31.985 C76.7629996,31.653665 76.690667,31.3246683 76.616,30.998 L73.214,30.998 C73.1393329,31.3246683 73.0670003,31.653665 72.997,31.985 C72.9269996,32.316335 72.8593336,32.6546649 72.794,33 L70.722,33 C71.0486683,31.5159926 71.4616642,29.9596748 71.961,28.331 C72.4603358,26.7023252 73.0366634,25.0013422 73.69,23.228 L76.238,23.228 C76.8726698,24.9640087 77.4373308,26.6509918 77.932,28.289 C78.4266691,29.9270082 78.8466649,31.4973258 79.192,33 Z M74.908,24.88 C74.6839989,25.5800035 74.467001,26.2963297 74.257,27.029 C74.0469989,27.7616703 73.844001,28.5059962 73.648,29.262 L76.182,29.262 C76.0046658,28.5713299 75.811001,27.8620036 75.601,27.134 C75.3909989,26.4059964 75.1600012,25.6546705 74.908,24.88 Z M82.544,33 L80.43,33 L80.43,23.228 L84.154,23.228 C85.1900052,23.228 86.008997,23.4963306 86.611,24.033 C87.213003,24.5696693 87.514,25.3139952 87.514,26.266 C87.514,26.9100032 87.3623348,27.4676643 87.059,27.939 C86.7556651,28.4103357 86.3240028,28.7626655 85.764,28.996 C86.109335,29.5093359 86.4593315,30.0786635 86.814,30.704 C87.1686684,31.3293365 87.579331,32.0946621 88.046,33 L85.666,33 C85.3486651,32.3279966 85.0313349,31.6980029 84.714,31.11 C84.3966651,30.5219971 84.0793349,29.9666693 83.762,29.444 L82.544,29.444 L82.544,33 Z M85.414,26.308 C85.414,25.8879979 85.2856679,25.5590012 85.029,25.321 C84.772332,25.0829988 84.4246688,24.964 83.986,24.964 L82.544,24.964 L82.544,27.708 L84,27.708 C84.4386688,27.708 84.7839987,27.5866679 85.036,27.344 C85.2880012,27.1013321 85.414,26.7560022 85.414,26.308 Z M93.008,29.262 L93.008,27.526 L96.438,27.526 L96.438,32.762 C96.0366646,32.8926673 95.5816692,32.9929997 95.073,33.063 C94.5643308,33.1330004 94.0626691,33.168 93.568,33.168 C91.9346585,33.168 90.7400038,32.7573374 89.984,31.936 C89.2279962,31.1146626 88.85,29.8406753 88.85,28.114 C88.85,26.3873247 89.218663,25.1133374 89.956,24.292 C90.693337,23.4706626 91.8506588,23.06 93.428,23.06 C93.8853356,23.06 94.3426644,23.090333 94.8,23.151 C95.2573356,23.211667 95.6446651,23.2933328 95.962,23.396 L95.962,25.244 C95.5886648,25.1319994 95.2060019,25.0480003 94.814,24.992 C94.421998,24.9359997 94.0206687,24.908 93.61,24.908 C92.5926616,24.908 91.9043351,25.1366644 91.545,25.594 C91.1856648,26.0513356 91.006,26.8773274 91.006,28.072 C91.006,29.2853394 91.2066646,30.1299976 91.608,30.606 C92.0093353,31.0820024 92.7326614,31.32 93.778,31.32 C93.8993339,31.32 94.0253327,31.3153334 94.156,31.306 L94.548,31.278 L94.548,29.262 L93.008,29.262 Z M104.298,33 L98.236,33 L98.236,23.228 L104.298,23.228 L104.298,24.964 L100.35,24.964 L100.35,27.106 L103.878,27.106 L103.878,28.898 L100.35,28.898 L100.35,31.264 L104.298,31.264 L104.298,33 Z M110.128,33 L106.012,33 L106.012,23.228 L109.778,23.228 C110.823339,23.228 111.621331,23.4449978 112.172,23.879 C112.722669,24.3130022 112.998,24.9453292 112.998,25.776 C112.998,26.2706691 112.876668,26.6906649 112.634,27.036 C112.391332,27.3813351 112.027336,27.6566656 111.542,27.862 C112.158003,28.0486676 112.619998,28.3216649 112.928,28.681 C113.236002,29.0403351 113.39,29.490664 113.39,30.032 C113.39,30.9746714 113.103003,31.7049974 112.529,32.223 C111.954997,32.7410026 111.154672,33 110.128,33 Z M110.898,26.028 C110.898,25.635998 110.804668,25.3560008 110.618,25.188 C110.431332,25.0199992 110.128002,24.936 109.708,24.936 L108.126,24.936 L108.126,27.148 L109.708,27.148 C110.146669,27.148 110.454666,27.0663342 110.632,26.903 C110.809334,26.7396659 110.898,26.4480021 110.898,26.028 Z M111.29,30.074 C111.29,29.6166644 111.192001,29.2993342 110.996,29.122 C110.799999,28.9446658 110.459336,28.856 109.974,28.856 L108.126,28.856 L108.126,31.292 L109.974,31.292 C110.440669,31.292 110.776666,31.1986676 110.982,31.012 C111.187334,30.8253324 111.29,30.5126689 111.29,30.074 Z M122.37,33 L120.214,33 C120.148666,32.6546649 120.081,32.316335 120.011,31.985 C119.941,31.653665 119.868667,31.3246683 119.794,30.998 L116.392,30.998 C116.317333,31.3246683 116.245,31.653665 116.175,31.985 C116.105,32.316335 116.037334,32.6546649 115.972,33 L113.9,33 C114.226668,31.5159926 114.639664,29.9596748 115.139,28.331 C115.638336,26.7023252 116.214663,25.0013422 116.868,23.228 L119.416,23.228 C120.05067,24.9640087 120.615331,26.6509918 121.11,28.289 C121.604669,29.9270082 122.024665,31.4973258 122.37,33 Z M118.086,24.88 C117.861999,25.5800035 117.645001,26.2963297 117.435,27.029 C117.224999,27.7616703 117.022001,28.5059962 116.826,29.262 L119.36,29.262 C119.182666,28.5713299 118.989001,27.8620036 118.779,27.134 C118.568999,26.4059964 118.338001,25.6546705 118.086,24.88 Z M127.346,33.168 C125.787325,33.168 124.653337,32.7620041 123.944,31.95 C123.234663,31.1379959 122.88,29.8500088 122.88,28.086 C122.88,26.3499913 123.22533,25.0783374 123.916,24.271 C124.60667,23.4636626 125.707992,23.06 127.22,23.06 C127.612002,23.06 127.994665,23.0856664 128.368,23.137 C128.741335,23.1883336 129.067999,23.2606662 129.348,23.354 L129.348,25.202 C129.011998,25.0993328 128.685335,25.0223336 128.368,24.971 C128.050665,24.9196664 127.728668,24.894 127.402,24.894 C126.487329,24.894 125.864335,25.1296643 125.533,25.601 C125.201665,26.0723357 125.036,26.9006607 125.036,28.086 C125.036,29.2620059 125.215665,30.0973309 125.575,30.592 C125.934335,31.0866691 126.552662,31.334 127.43,31.334 C127.738001,31.334 128.057665,31.3083336 128.389,31.257 C128.720335,31.2056664 129.039998,31.1333338 129.348,31.04 L129.348,32.902 C129.077332,32.9860004 128.771668,33.0513331 128.431,33.098 C128.090332,33.1446669 127.728669,33.168 127.346,33.168 Z M138.888,33 L136.48,33 C136.013331,32.1319957 135.572335,31.3526701 135.157,30.662 C134.741665,29.9713299 134.328669,29.3226697 133.918,28.716 L132.91,30.018 L132.91,33 L130.796,33 L130.796,23.228 L132.91,23.228 L132.91,27.484 L136.2,23.228 L138.51,23.228 L135.472,27.218 C136.041336,28.0580042 136.603664,28.9516619 137.159,29.899 C137.714336,30.8463381 138.290664,31.8799944 138.888,33 Z" id="SUPPLIER-CHArgeback-Copy" fill="#2B4768"></path>
                        <g id="Group-16" stroke-width="1">
                            <rect id="Rectangle-6-Copy-2" fill="url(#linearGradient-1)" x="0" y="0" width="43" height="43" rx="21.5"></rect>
                            <rect id="Rectangle-6-Copy-2" stroke="#FFFFFF" stroke-width="2" x="5" y="5" width="33" height="33" rx="16.5"></rect>
                            <path d="M16.6592515,22.98941 C24.4001247,21.5762416 31.8225705,30.2517947 38.9265888,49.0160693 L31,49.0160693 L5,49.0160693 C16.3088629,42.1432442 20.1952801,33.4676911 16.6592515,22.98941 Z" id="Rectangle-2" fill="#FFFFFF"></path>
                            <polygon id="Triangle-2" fill="#FFFFFF" transform="translate(12.742641, 7.242641) rotate(-41.000000) translate(-12.742641, -7.242641) " points="15.7426407 7.24264069 9.74264069 10.7426407 9.74264069 3.74264069"></polygon>
                        </g>
                    </g>
                </g>
            </g>
        </g>
    </g>
</svg>