<?xml version="1.0" encoding="UTF-8"?>
<svg width="18px" height="4px" viewBox="0 0 18 4" version="1.1" xmlns="http://www.w3.org/2000/svg" xmlns:xlink="http://www.w3.org/1999/xlink">
    <!-- Generator: Sketch 49.3 (51167) - http://www.bohemiancoding.com/sketch -->
    <title>Icons/more hover</title>
    <desc>Created with Sketch.</desc>
    <defs>
        <path d="M14.4252,1.7118 C14.4252,0.7038 15.1308,0 16.1388,0 C17.199,0 17.8542,0.6552 17.8542,1.7118 C17.8542,2.7684 17.199,3.4236 16.1388,3.4236 C15.1308,3.4236 14.4252,2.718 14.4252,1.7118 M7.2126,1.7118 C7.2126,0.7038 7.9182,0 8.9262,0 C9.9864,0 10.6416,0.6552 10.6416,1.7118 C10.6416,2.7684 9.9864,3.4236 8.9262,3.4236 C7.9182,3.4236 7.2126,2.718 7.2126,1.7118 M0,1.7118 C0,0.7038 0.7056,0 1.7154,0 C2.7738,0 3.429,0.6552 3.429,1.7118 C3.429,2.7684 2.7738,3.4236 1.7154,3.4236 C0.7074,3.4236 0,2.718 0,1.7118" id="path-1"></path>
    </defs>
    <g id="Icons/more-hover" stroke="none" stroke-width="1" fill="none" fill-rule="evenodd">
        <g id="Icons/more">
            <g id="more">
                <g id="a-link" fill="#000000" fill-rule="nonzero">
                    <path d="M14.4252,1.7118 C14.4252,0.7038 15.1308,0 16.1388,0 C17.199,0 17.8542,0.6552 17.8542,1.7118 C17.8542,2.7684 17.199,3.4236 16.1388,3.4236 C15.1308,3.4236 14.4252,2.718 14.4252,1.7118 M7.2126,1.7118 C7.2126,0.7038 7.9182,0 8.9262,0 C9.9864,0 10.6416,0.6552 10.6416,1.7118 C10.6416,2.7684 9.9864,3.4236 8.9262,3.4236 C7.9182,3.4236 7.2126,2.718 7.2126,1.7118 M0,1.7118 C0,0.7038 0.7056,0 1.7154,0 C2.7738,0 3.429,0.6552 3.429,1.7118 C3.429,2.7684 2.7738,3.4236 1.7154,3.4236 C0.7074,3.4236 0,2.718 0,1.7118" id="a"></path>
                </g>
                <g id="Clipped"></g>
            </g>
            <mask id="mask-2" fill="white">
                <use xlink:href="#path-1"></use>
            </mask>
            <use id="a" fill="#999999" xlink:href="#path-1"></use>
        </g>
    </g>
</svg>